<?xml version="1.0" encoding="UTF-8"?>
<svg xmlns="http://www.w3.org/2000/svg" xmlns:xlink="http://www.w3.org/1999/xlink" width="17.755pt" height="7.834pt" viewBox="0 0 17.755 7.834" version="1.1">
<defs>
<clipPath id="clip1">
  <path d="M 0 0 L 17.753906 0 L 17.753906 7.835938 L 0 7.835938 Z M 0 0 "/>
</clipPath>
</defs>
<g id="surface1">
<g clip-path="url(#clip1)" clip-rule="nonzero">
<path style="fill-rule:nonzero;fill:rgb(100%,100%,100%);fill-opacity:1;stroke-width:0.74721;stroke-linecap:butt;stroke-linejoin:miter;stroke:rgb(0%,0%,0%);stroke-opacity:1;stroke-miterlimit:10;" d="M -8.503 -0.200219 L -8.503 -6.887719 C -8.503 -6.997094 -8.413156 -7.086938 -8.303781 -7.086938 L 8.305594 -7.086938 C 8.414969 -7.086938 8.504812 -6.997094 8.504812 -6.887719 L 8.504812 -0.200219 C 8.504812 -0.0908438 8.414969 -0.001 8.305594 -0.001 L -8.303781 -0.001 C -8.413156 -0.001 -8.503 -0.0908438 -8.503 -0.200219 Z M -8.503 -0.200219 " transform="matrix(1,0,0,-1,8.878,0.374)"/>
</g>
<path style=" stroke:none;fill-rule:nonzero;fill:rgb(92.549133%,0%,54.899597%);fill-opacity:1;" d="M 8.992188 0.375 C 8.992188 0.3125 8.941406 0.261719 8.878906 0.261719 C 8.816406 0.261719 8.765625 0.3125 8.765625 0.375 C 8.765625 0.4375 8.816406 0.488281 8.878906 0.488281 C 8.941406 0.488281 8.992188 0.4375 8.992188 0.375 Z M 8.992188 0.375 "/>
</g>
</svg>
