<?xml version="1.0" encoding="UTF-8"?>
<svg xmlns="http://www.w3.org/2000/svg" xmlns:xlink="http://www.w3.org/1999/xlink" width="6.416pt" height="7.834pt" viewBox="0 0 6.416 7.834" version="1.1">
<defs>
<clipPath id="clip1">
  <path d="M 0 0 L 6.414062 0 L 6.414062 7.835938 L 0 7.835938 Z M 0 0 "/>
</clipPath>
<clipPath id="clip2">
  <path d="M 0 0 L 6.414062 0 L 6.414062 7.835938 L 0 7.835938 Z M 0 0 "/>
</clipPath>
</defs>
<g id="surface1">
<g clip-path="url(#clip1)" clip-rule="nonzero">
<path style="fill-rule:nonzero;fill:rgb(100%,100%,100%);fill-opacity:1;stroke-width:0.74721;stroke-linecap:butt;stroke-linejoin:miter;stroke:rgb(0%,0%,0%);stroke-opacity:1;stroke-miterlimit:10;" d="M 0.001 -0.200219 L 0.001 -6.887719 C 0.001 -6.997094 0.0908437 -7.086938 0.200219 -7.086938 L 5.46975 -7.086938 C 5.579125 -7.086938 5.668969 -6.997094 5.668969 -6.887719 L 5.668969 -0.200219 C 5.668969 -0.0908438 5.579125 -0.001 5.46975 -0.001 L 0.200219 -0.001 C 0.0908437 -0.001 0.001 -0.0908438 0.001 -0.200219 Z M 0.001 -0.200219 " transform="matrix(1,0,0,-1,0.374,0.374)"/>
</g>
<path style=" stroke:none;fill-rule:nonzero;fill:rgb(0%,0%,0%);fill-opacity:1;" d="M 1.792969 1.992188 L 1.792969 5.84375 C 1.792969 5.953125 1.878906 6.042969 1.992188 6.042969 L 4.425781 6.042969 C 4.535156 6.042969 4.625 5.953125 4.625 5.84375 L 4.625 1.992188 C 4.625 1.878906 4.535156 1.792969 4.425781 1.792969 L 1.992188 1.792969 C 1.878906 1.792969 1.792969 1.878906 1.792969 1.992188 Z M 1.792969 1.992188 "/>
<g clip-path="url(#clip2)" clip-rule="nonzero">
<path style="fill:none;stroke-width:0.74721;stroke-linecap:butt;stroke-linejoin:miter;stroke:rgb(0%,0%,0%);stroke-opacity:1;stroke-miterlimit:10;" d="M 1.418969 -1.618188 L 1.418969 -5.46975 C 1.418969 -5.579125 1.504906 -5.668969 1.618187 -5.668969 L 4.051781 -5.668969 C 4.161156 -5.668969 4.251 -5.579125 4.251 -5.46975 L 4.251 -1.618188 C 4.251 -1.504906 4.161156 -1.418969 4.051781 -1.418969 L 1.618187 -1.418969 C 1.504906 -1.418969 1.418969 -1.504906 1.418969 -1.618188 Z M 1.418969 -1.618188 " transform="matrix(1,0,0,-1,0.374,0.374)"/>
</g>
<path style=" stroke:none;fill-rule:nonzero;fill:rgb(92.549133%,0%,54.899597%);fill-opacity:1;" d="M 0.488281 0.375 C 0.488281 0.3125 0.4375 0.261719 0.375 0.261719 C 0.3125 0.261719 0.261719 0.3125 0.261719 0.375 C 0.261719 0.4375 0.3125 0.488281 0.375 0.488281 C 0.4375 0.488281 0.488281 0.4375 0.488281 0.375 Z M 0.488281 0.375 "/>
</g>
</svg>
