<?xml version="1.0" encoding="UTF-8"?>
<svg xmlns="http://www.w3.org/2000/svg" xmlns:xlink="http://www.w3.org/1999/xlink" width="32.177pt" height="18.004pt" viewBox="0 0 32.177 18.004" version="1.1">
<defs>
<clipPath id="clip1">
  <path d="M 6 0 L 32.175781 0 L 32.175781 18.003906 L 6 18.003906 Z M 6 0 "/>
</clipPath>
</defs>
<g id="surface1">
<path style="fill:none;stroke-width:0.99628;stroke-linecap:butt;stroke-linejoin:miter;stroke:rgb(0%,0%,0%);stroke-opacity:1;stroke-miterlimit:10;" d="M -0.00190625 0.00190625 L -0.00190625 -11.337937 L 19.841844 -11.337937 " transform="matrix(1,0,0,-1,0.498,0.498)"/>
<path style=" stroke:none;fill-rule:nonzero;fill:rgb(100%,100%,100%);fill-opacity:1;" d="M 20.339844 17.40625 L 20.339844 6.265625 C 20.339844 6.210938 20.386719 6.167969 20.441406 6.167969 L 31.578125 6.167969 C 31.632812 6.167969 31.679688 6.210938 31.679688 6.265625 L 31.679688 17.40625 C 31.679688 17.460938 31.632812 17.507812 31.578125 17.507812 L 20.441406 17.507812 C 20.386719 17.507812 20.339844 17.460938 20.339844 17.40625 Z M 20.339844 17.40625 "/>
<g clip-path="url(#clip1)" clip-rule="nonzero">
<path style="fill:none;stroke-width:0.99628;stroke-linecap:butt;stroke-linejoin:miter;stroke:rgb(0%,0%,0%);stroke-opacity:1;stroke-miterlimit:10;" d="M 19.841844 -16.90825 L 19.841844 -5.767625 C 19.841844 -5.712937 19.888719 -5.669969 19.943406 -5.669969 L 31.080125 -5.669969 C 31.134812 -5.669969 31.181687 -5.712937 31.181687 -5.767625 L 31.181687 -16.90825 C 31.181687 -16.962937 31.134812 -17.009812 31.080125 -17.009812 L 19.943406 -17.009812 C 19.888719 -17.009812 19.841844 -16.962937 19.841844 -16.90825 Z M 19.841844 -16.90825 " transform="matrix(1,0,0,-1,0.498,0.498)"/>
</g>
<path style=" stroke:none;fill-rule:nonzero;fill:rgb(92.549133%,0%,54.899597%);fill-opacity:1;" d="M 0.609375 0.496094 C 0.609375 0.433594 0.5625 0.382812 0.496094 0.382812 C 0.433594 0.382812 0.382812 0.433594 0.382812 0.496094 C 0.382812 0.5625 0.433594 0.609375 0.496094 0.609375 C 0.5625 0.609375 0.609375 0.5625 0.609375 0.496094 Z M 0.609375 0.496094 "/>
</g>
</svg>
