<?xml version="1.0" encoding="UTF-8"?>
<svg xmlns="http://www.w3.org/2000/svg" xmlns:xlink="http://www.w3.org/1999/xlink" width="119.803pt" height="29.094pt" viewBox="0 0 119.803 29.094" version="1.1">
<defs>
<clipPath id="clip1">
  <path d="M 0 0 L 119.804688 0 L 119.804688 14 L 0 14 Z M 0 0 "/>
</clipPath>
<clipPath id="clip2">
  <path d="M 0 15 L 119.804688 15 L 119.804688 29.09375 L 0 29.09375 Z M 0 15 "/>
</clipPath>
</defs>
<g id="surface1">
<path style=" stroke:none;fill-rule:nonzero;fill:rgb(100%,100%,100%);fill-opacity:1;" d="M 3.207031 3.207031 L 3.207031 25.886719 L 116.59375 25.886719 L 116.59375 3.207031 Z M 3.207031 3.207031 "/>
<g clip-path="url(#clip1)" clip-rule="nonzero">
<path style="fill:none;stroke-width:0.74721;stroke-linecap:butt;stroke-linejoin:miter;stroke:rgb(0%,0%,0%);stroke-opacity:1;stroke-miterlimit:10;" d="M -59.529906 14.172 L -56.693969 11.339969 L 56.69275 11.339969 L 59.528688 14.172 " transform="matrix(1,0,0,-1,59.901,14.547)"/>
</g>
<g clip-path="url(#clip2)" clip-rule="nonzero">
<path style="fill:none;stroke-width:0.74721;stroke-linecap:butt;stroke-linejoin:miter;stroke:rgb(0%,0%,0%);stroke-opacity:1;stroke-miterlimit:10;" d="M -59.529906 -14.17175 L -56.693969 -11.339719 L 56.69275 -11.339719 L 59.528688 -14.17175 " transform="matrix(1,0,0,-1,59.901,14.547)"/>
</g>
<path style=" stroke:none;fill-rule:nonzero;fill:rgb(92.549133%,0%,54.899597%);fill-opacity:1;" d="M 60.015625 14.546875 C 60.015625 14.484375 59.964844 14.433594 59.902344 14.433594 C 59.839844 14.433594 59.789062 14.484375 59.789062 14.546875 C 59.789062 14.609375 59.839844 14.660156 59.902344 14.660156 C 59.964844 14.660156 60.015625 14.609375 60.015625 14.546875 Z M 60.015625 14.546875 "/>
</g>
</svg>
