<?xml version="1.0" encoding="UTF-8"?>
<svg xmlns="http://www.w3.org/2000/svg" xmlns:xlink="http://www.w3.org/1999/xlink" width="6.665pt" height="6.665pt" viewBox="0 0 6.665 6.665" version="1.1">
<defs>
<clipPath id="clip1">
  <path d="M 2 0 L 4 0 L 4 6.664062 L 2 6.664062 Z M 2 0 "/>
</clipPath>
<clipPath id="clip2">
  <path d="M 0 0 L 6.664062 0 L 6.664062 1 L 0 1 Z M 0 0 "/>
</clipPath>
</defs>
<g id="surface1">
<g clip-path="url(#clip1)" clip-rule="nonzero">
<path style="fill:none;stroke-width:0.99628;stroke-linecap:butt;stroke-linejoin:miter;stroke:rgb(0%,0%,0%);stroke-opacity:1;stroke-miterlimit:10;" d="M -0.00096875 2.835906 L -0.00096875 -2.835969 " transform="matrix(1,0,0,-1,3.333,3.332)"/>
</g>
<g clip-path="url(#clip2)" clip-rule="nonzero">
<path style="fill:none;stroke-width:0.99628;stroke-linecap:butt;stroke-linejoin:miter;stroke:rgb(0%,0%,0%);stroke-opacity:1;stroke-miterlimit:10;" d="M -2.833 2.835906 L 2.834969 2.835906 " transform="matrix(1,0,0,-1,3.333,3.332)"/>
</g>
<path style=" stroke:none;fill-rule:nonzero;fill:rgb(92.549133%,0%,54.899597%);fill-opacity:1;" d="M 3.445312 3.332031 C 3.445312 3.269531 3.394531 3.21875 3.332031 3.21875 C 3.269531 3.21875 3.21875 3.269531 3.21875 3.332031 C 3.21875 3.394531 3.269531 3.445312 3.332031 3.445312 C 3.394531 3.445312 3.445312 3.394531 3.445312 3.332031 Z M 3.445312 3.332031 "/>
</g>
</svg>
