<?xml version="1.0" encoding="UTF-8"?>
<svg xmlns="http://www.w3.org/2000/svg" xmlns:xlink="http://www.w3.org/1999/xlink" width="6.666pt" height="17.619pt" viewBox="0 0 6.666 17.619" version="1.1">
<defs>
<clipPath id="clip1">
  <path d="M 0 0 L 6.664062 0 L 6.664062 17.617188 L 0 17.617188 Z M 0 0 "/>
</clipPath>
</defs>
<g id="surface1">
<g clip-path="url(#clip1)" clip-rule="nonzero">
<path style="fill:none;stroke-width:0.99628;stroke-linecap:butt;stroke-linejoin:miter;stroke:rgb(0%,0%,0%);stroke-opacity:1;stroke-miterlimit:10;" d="M -0.00096875 -11.340125 L -2.833 -14.172156 L -0.00096875 -17.008094 L 2.834969 -14.172156 Z M -0.00096875 -11.340125 " transform="matrix(1,0,0,-1,3.333,0.113)"/>
</g>
<path style="fill:none;stroke-width:0.99628;stroke-linecap:butt;stroke-linejoin:miter;stroke:rgb(0%,0%,0%);stroke-opacity:1;stroke-miterlimit:10;" d="M -0.00096875 -8.035437 L -0.00096875 -9.922156 " transform="matrix(1,0,0,-1,3.333,0.113)"/>
<path style=" stroke:none;fill-rule:nonzero;fill:rgb(0%,0%,0%);fill-opacity:1;" d="M 3.332031 2.949219 C 3.042969 4.488281 2.175781 6.992188 1.167969 8.726562 L 5.5 8.726562 C 4.488281 6.992188 3.621094 4.488281 3.332031 2.949219 "/>
<path style=" stroke:none;fill-rule:nonzero;fill:rgb(92.549133%,0%,54.899597%);fill-opacity:1;" d="M 3.445312 0.113281 C 3.445312 0.0507812 3.394531 0 3.332031 0 C 3.269531 0 3.21875 0.0507812 3.21875 0.113281 C 3.21875 0.175781 3.269531 0.226562 3.332031 0.226562 C 3.394531 0.226562 3.445312 0.175781 3.445312 0.113281 Z M 3.445312 0.113281 "/>
</g>
</svg>
