<?xml version="1.0" encoding="UTF-8"?>
<svg xmlns="http://www.w3.org/2000/svg" xmlns:xlink="http://www.w3.org/1999/xlink" width="12.296pt" height="22.926pt" viewBox="0 0 12.296 22.926" version="1.1">
<defs>
<clipPath id="clip1">
  <path d="M 0 7 L 12.296875 7 L 12.296875 22.925781 L 0 22.925781 Z M 0 7 "/>
</clipPath>
</defs>
<g id="surface1">
<path style=" stroke:none;fill-rule:nonzero;fill:rgb(0%,0%,0%);fill-opacity:1;" d="M 5.667969 8.503906 L 0 4.253906 L 5.667969 0 L 5.667969 2.125 L 11.339844 2.125 L 11.339844 6.378906 L 5.667969 6.378906 Z M 5.667969 8.503906 "/>
<g clip-path="url(#clip1)" clip-rule="nonzero">
<path style="fill:none;stroke-width:0.49814;stroke-linecap:butt;stroke-linejoin:miter;stroke:rgb(0%,0%,0%);stroke-opacity:1;stroke-dasharray:0.49814,0.99628;stroke-miterlimit:10;" d="M 0.355906 -2.836781 L 6.023875 -7.086781 L 0.355906 -11.336781 L 0.355906 -9.211781 L -5.315969 -9.211781 L -5.315969 -4.961781 L 0.355906 -4.961781 Z M 0.355906 -2.836781 " transform="matrix(1,0,0,-1,6.023,11.339)"/>
</g>
<path style=" stroke:none;fill-rule:nonzero;fill:rgb(92.549133%,0%,54.899597%);fill-opacity:1;" d="M 6.136719 11.339844 C 6.136719 11.277344 6.085938 11.226562 6.023438 11.226562 C 5.960938 11.226562 5.910156 11.277344 5.910156 11.339844 C 5.910156 11.402344 5.960938 11.453125 6.023438 11.453125 C 6.085938 11.453125 6.136719 11.402344 6.136719 11.339844 Z M 6.136719 11.339844 "/>
</g>
</svg>
