<?xml version="1.0" encoding="UTF-8"?>
<svg xmlns="http://www.w3.org/2000/svg" xmlns:xlink="http://www.w3.org/1999/xlink" width="12.296pt" height="22.926pt" viewBox="0 0 12.296 22.926" version="1.1">
<defs>
<clipPath id="clip1">
  <path d="M 0 0 L 12.296875 0 L 12.296875 16 L 0 16 Z M 0 0 "/>
</clipPath>
<clipPath id="clip2">
  <path d="M 0 14 L 12.296875 14 L 12.296875 22.925781 L 0 22.925781 Z M 0 14 "/>
</clipPath>
</defs>
<g id="surface1">
<g clip-path="url(#clip1)" clip-rule="nonzero">
<path style="fill:none;stroke-width:0.49814;stroke-linecap:butt;stroke-linejoin:miter;stroke:rgb(0%,0%,0%);stroke-opacity:1;stroke-dasharray:0.49814,0.99628;stroke-miterlimit:10;" d="M -0.354031 2.834094 L -6.022 7.088 L -0.354031 11.338 L -0.354031 9.213 L 5.313937 9.213 L 5.313937 4.959094 L -0.354031 4.959094 Z M -0.354031 2.834094 " transform="matrix(1,0,0,-1,6.272,11.588)"/>
</g>
<g clip-path="url(#clip2)" clip-rule="nonzero">
<path style=" stroke:none;fill-rule:nonzero;fill:rgb(0%,0%,0%);fill-opacity:1;" d="M 6.625 14.421875 L 12.296875 18.675781 L 6.625 22.925781 L 6.625 20.800781 L 0.957031 20.800781 L 0.957031 16.546875 L 6.625 16.546875 Z M 6.625 14.421875 "/>
</g>
<path style=" stroke:none;fill-rule:nonzero;fill:rgb(92.549133%,0%,54.899597%);fill-opacity:1;" d="M 6.386719 11.589844 C 6.386719 11.527344 6.335938 11.476562 6.273438 11.476562 C 6.210938 11.476562 6.160156 11.527344 6.160156 11.589844 C 6.160156 11.652344 6.210938 11.703125 6.273438 11.703125 C 6.335938 11.703125 6.386719 11.652344 6.386719 11.589844 Z M 6.386719 11.589844 "/>
</g>
</svg>
