<?xml version="1.0" encoding="UTF-8"?>
<svg xmlns="http://www.w3.org/2000/svg" xmlns:xlink="http://www.w3.org/1999/xlink" width="18.004pt" height="16.202pt" viewBox="0 0 18.004 16.202" version="1.1">
<defs>
<clipPath id="clip1">
  <path d="M 8 6 L 18.003906 6 L 18.003906 16.203125 L 8 16.203125 Z M 8 6 "/>
</clipPath>
</defs>
<g id="surface1">
<g clip-path="url(#clip1)" clip-rule="nonzero">
<path style="fill:none;stroke-width:0.99628;stroke-linecap:butt;stroke-linejoin:miter;stroke:rgb(0%,0%,0%);stroke-opacity:1;stroke-miterlimit:10;" d="M 8.505906 -15.590125 L 8.505906 -7.086219 L 17.009812 -7.086219 L 17.009812 -15.590125 Z M 8.505906 -15.590125 " transform="matrix(1,0,0,-1,0.498,0.113)"/>
</g>
<path style="fill:none;stroke-width:0.99628;stroke-linecap:butt;stroke-linejoin:miter;stroke:rgb(0%,0%,0%);stroke-opacity:1;stroke-miterlimit:10;" d="M -0.00190625 -8.035438 L -0.00190625 -11.340125 L 5.669969 -11.340125 " transform="matrix(1,0,0,-1,0.498,0.113)"/>
<path style=" stroke:none;fill-rule:nonzero;fill:rgb(0%,0%,0%);fill-opacity:1;" d="M 0.496094 2.949219 C 0.210938 4.488281 -0.65625 6.992188 -1.667969 8.726562 L 2.664062 8.726562 C 1.652344 6.992188 0.785156 4.488281 0.496094 2.949219 "/>
<path style=" stroke:none;fill-rule:nonzero;fill:rgb(92.549133%,0%,54.899597%);fill-opacity:1;" d="M 0.609375 0.113281 C 0.609375 0.0507812 0.5625 0 0.496094 0 C 0.433594 0 0.382812 0.0507812 0.382812 0.113281 C 0.382812 0.175781 0.433594 0.226562 0.496094 0.226562 C 0.5625 0.226562 0.609375 0.175781 0.609375 0.113281 Z M 0.609375 0.113281 "/>
</g>
</svg>
