<?xml version="1.0" encoding="UTF-8"?>
<svg xmlns="http://www.w3.org/2000/svg" xmlns:xlink="http://www.w3.org/1999/xlink" width="17.789pt" height="12.335pt" viewBox="0 0 17.789 12.335" version="1.1">
<defs>
<clipPath id="clip1">
  <path d="M 0 0 L 4 0 L 4 12.335938 L 0 12.335938 Z M 0 0 "/>
</clipPath>
<clipPath id="clip2">
  <path d="M 14 4 L 17.789062 4 L 17.789062 8 L 14 8 Z M 14 4 "/>
</clipPath>
</defs>
<g id="surface1">
<g clip-path="url(#clip1)" clip-rule="nonzero">
<path style="fill:none;stroke-width:0.99628;stroke-linecap:butt;stroke-linejoin:miter;stroke:rgb(0%,0%,0%);stroke-opacity:1;stroke-miterlimit:10;" d="M -15.589 5.668 L -12.756969 5.668 L -12.756969 -5.667937 L -15.589 -5.667937 " transform="matrix(1,0,0,-1,16.089,6.168)"/>
</g>
<g clip-path="url(#clip2)" clip-rule="nonzero">
<path style=" stroke:none;fill-rule:nonzero;fill:rgb(0%,0%,0%);fill-opacity:1;" d="M 17.789062 6.167969 C 17.789062 5.230469 17.027344 4.46875 16.089844 4.46875 C 15.148438 4.46875 14.386719 5.230469 14.386719 6.167969 C 14.386719 7.105469 15.148438 7.867188 16.089844 7.867188 C 17.027344 7.867188 17.789062 7.105469 17.789062 6.167969 Z M 17.789062 6.167969 "/>
</g>
<path style=" stroke:none;fill-rule:nonzero;fill:rgb(92.549133%,0%,54.899597%);fill-opacity:1;" d="M 16.203125 6.167969 C 16.203125 6.105469 16.152344 6.054688 16.089844 6.054688 C 16.027344 6.054688 15.976562 6.105469 15.976562 6.167969 C 15.976562 6.230469 16.027344 6.28125 16.089844 6.28125 C 16.152344 6.28125 16.203125 6.230469 16.203125 6.167969 Z M 16.203125 6.167969 "/>
</g>
</svg>
