<?xml version="1.0" encoding="UTF-8"?>
<svg xmlns="http://www.w3.org/2000/svg" xmlns:xlink="http://www.w3.org/1999/xlink" width="179.748pt" height="66.362pt" viewBox="0 0 179.748 66.362" version="1.1">
<g id="surface1">
<path style="fill:none;stroke-width:0.99628;stroke-linecap:butt;stroke-linejoin:miter;stroke:rgb(0%,0%,0%);stroke-opacity:1;stroke-miterlimit:10;" d="M 68.032188 -11.338531 L 68.032188 11.33725 L 102.047813 11.33725 L 102.047813 -11.338531 Z M 68.032188 -11.338531 " transform="matrix(1,0,0,-1,4.835,33.181)"/>
<path style="fill-rule:nonzero;fill:rgb(0%,0%,0%);fill-opacity:1;stroke-width:0.99628;stroke-linecap:butt;stroke-linejoin:miter;stroke:rgb(0%,0%,0%);stroke-opacity:1;stroke-miterlimit:10;" d="M 70.868125 -8.502594 L 70.868125 -2.834625 L 99.215781 -2.834625 L 99.215781 -8.502594 Z M 70.868125 -8.502594 " transform="matrix(1,0,0,-1,4.835,33.181)"/>
<path style="fill-rule:nonzero;fill:rgb(0%,0%,0%);fill-opacity:1;stroke-width:0.99628;stroke-linecap:butt;stroke-linejoin:miter;stroke:rgb(0%,0%,0%);stroke-opacity:1;stroke-miterlimit:10;" d="M 89.293906 4.251312 C 89.293906 6.598969 87.387656 8.505219 85.04 8.505219 C 82.692344 8.505219 80.79 6.598969 80.79 4.251312 C 80.79 1.903656 82.692344 0.0013125 85.04 0.0013125 C 87.387656 0.0013125 89.293906 1.903656 89.293906 4.251312 Z M 89.293906 4.251312 " transform="matrix(1,0,0,-1,4.835,33.181)"/>
</g>
</svg>
