<?xml version="1.0" encoding="UTF-8"?>
<svg xmlns="http://www.w3.org/2000/svg" xmlns:xlink="http://www.w3.org/1999/xlink" width="179.748pt" height="66.362pt" viewBox="0 0 179.748 66.362" version="1.1">
<g id="surface1">
<path style="fill:none;stroke-width:1.99255;stroke-linecap:butt;stroke-linejoin:miter;stroke:rgb(0%,0%,0%);stroke-opacity:1;stroke-miterlimit:10;" d="M 0.0009375 0.0013125 L 170.079062 0.0013125 " transform="matrix(1,0,0,-1,4.835,33.181)"/>
<path style="fill:none;stroke-width:0.99628;stroke-linecap:butt;stroke-linejoin:miter;stroke:rgb(0%,0%,0%);stroke-opacity:1;stroke-miterlimit:10;" d="M 79.372031 -2.834625 L 79.372031 -17.0065 " transform="matrix(1,0,0,-1,4.835,33.181)"/>
<path style="fill:none;stroke-width:0.99628;stroke-linecap:butt;stroke-linejoin:miter;stroke:rgb(0%,0%,0%);stroke-opacity:1;stroke-miterlimit:10;" d="M 90.707969 -2.834625 L 90.707969 -17.0065 " transform="matrix(1,0,0,-1,4.835,33.181)"/>
<path style="fill:none;stroke-width:0.99628;stroke-linecap:butt;stroke-linejoin:miter;stroke:rgb(0%,0%,0%);stroke-opacity:1;stroke-miterlimit:10;" d="M 79.372031 2.833344 L 79.372031 17.009125 " transform="matrix(1,0,0,-1,4.835,33.181)"/>
<path style="fill:none;stroke-width:0.99628;stroke-linecap:butt;stroke-linejoin:miter;stroke:rgb(0%,0%,0%);stroke-opacity:1;stroke-miterlimit:10;" d="M 90.707969 2.833344 L 90.707969 17.009125 " transform="matrix(1,0,0,-1,4.835,33.181)"/>
<path style="fill-rule:nonzero;fill:rgb(0%,0%,0%);fill-opacity:1;stroke-width:0.99628;stroke-linecap:butt;stroke-linejoin:miter;stroke:rgb(0%,0%,0%);stroke-opacity:1;stroke-miterlimit:10;" d="M 75.118125 9.923187 C 75.118125 10.704437 74.485313 11.33725 73.700156 11.33725 C 72.918906 11.33725 72.286094 10.704437 72.286094 9.923187 C 72.286094 9.138031 72.918906 8.505219 73.700156 8.505219 C 74.485313 8.505219 75.118125 9.138031 75.118125 9.923187 Z M 75.118125 9.923187 " transform="matrix(1,0,0,-1,4.835,33.181)"/>
<path style="fill:none;stroke-width:0.99628;stroke-linecap:butt;stroke-linejoin:miter;stroke:rgb(0%,0%,0%);stroke-opacity:1;stroke-miterlimit:10;" d="M 73.700156 9.923187 L 85.04 9.923187 " transform="matrix(1,0,0,-1,4.835,33.181)"/>
<path style="fill-rule:nonzero;fill:rgb(0%,0%,0%);fill-opacity:1;stroke-width:0.99628;stroke-linecap:butt;stroke-linejoin:miter;stroke:rgb(0%,0%,0%);stroke-opacity:1;stroke-miterlimit:10;" d="M 97.797813 -9.920563 C 97.797813 -9.139313 97.161094 -8.502594 96.379844 -8.502594 C 95.594688 -8.502594 94.961875 -9.139313 94.961875 -9.920563 C 94.961875 -10.705719 95.594688 -11.338531 96.379844 -11.338531 C 97.161094 -11.338531 97.797813 -10.705719 97.797813 -9.920563 Z M 97.797813 -9.920563 " transform="matrix(1,0,0,-1,4.835,33.181)"/>
<path style="fill:none;stroke-width:0.99628;stroke-linecap:butt;stroke-linejoin:miter;stroke:rgb(0%,0%,0%);stroke-opacity:1;stroke-miterlimit:10;" d="M 96.379844 -9.920563 L 85.04 -9.920563 " transform="matrix(1,0,0,-1,4.835,33.181)"/>
</g>
</svg>
