<?xml version="1.0" encoding="UTF-8"?>
<svg xmlns="http://www.w3.org/2000/svg" xmlns:xlink="http://www.w3.org/1999/xlink" width="114.133pt" height="14.66pt" viewBox="0 0 114.133 14.66" version="1.1">
<defs>
<clipPath id="clip1">
  <path d="M 0 0 L 114.132812 0 L 114.132812 10 L 0 10 Z M 0 0 "/>
</clipPath>
<clipPath id="clip2">
  <path d="M 0 5 L 114.132812 5 L 114.132812 7 L 0 7 Z M 0 5 "/>
</clipPath>
<clipPath id="clip3">
  <path d="M 56 14 L 58 14 L 58 14.660156 L 56 14.660156 Z M 56 14 "/>
</clipPath>
</defs>
<g id="surface1">
<g clip-path="url(#clip1)" clip-rule="nonzero">
<path style="fill:none;stroke-width:0.74721;stroke-linecap:butt;stroke-linejoin:miter;stroke:rgb(0%,0%,0%);stroke-opacity:1;stroke-miterlimit:10;" d="M -56.694906 14.172 L -56.694906 5.668094 L 56.691812 5.668094 L 56.691812 14.172 " transform="matrix(1,0,0,-1,57.066,14.547)"/>
</g>
<g clip-path="url(#clip2)" clip-rule="nonzero">
<path style="fill:none;stroke-width:0.74721;stroke-linecap:butt;stroke-linejoin:miter;stroke:rgb(0%,0%,0%);stroke-opacity:1;stroke-miterlimit:10;" d="M -56.694906 8.504031 L 56.691812 8.504031 " transform="matrix(1,0,0,-1,57.066,14.547)"/>
</g>
<g clip-path="url(#clip3)" clip-rule="nonzero">
<path style=" stroke:none;fill-rule:nonzero;fill:rgb(92.549133%,0%,54.899597%);fill-opacity:1;" d="M 57.179688 14.546875 C 57.179688 14.484375 57.128906 14.433594 57.066406 14.433594 C 57.003906 14.433594 56.953125 14.484375 56.953125 14.546875 C 56.953125 14.609375 57.003906 14.660156 57.066406 14.660156 C 57.128906 14.660156 57.179688 14.609375 57.179688 14.546875 Z M 57.179688 14.546875 "/>
</g>
</g>
</svg>
