<?xml version="1.0" encoding="UTF-8"?>
<svg xmlns="http://www.w3.org/2000/svg" xmlns:xlink="http://www.w3.org/1999/xlink" width="4.75pt" height="44.435pt" viewBox="0 0 4.75 44.435" version="1.1">
<defs>
<clipPath id="clip1">
  <path d="M 0 13 L 4.75 13 L 4.75 32 L 0 32 Z M 0 13 "/>
</clipPath>
<clipPath id="clip2">
  <path d="M 2 24 L 3 24 L 3 44.433594 L 2 44.433594 Z M 2 24 "/>
</clipPath>
<clipPath id="clip3">
  <path d="M 0 13 L 4.75 13 L 4.75 32 L 0 32 Z M 0 13 "/>
</clipPath>
</defs>
<g id="surface1">
<g clip-path="url(#clip1)" clip-rule="nonzero">
<path style="fill:none;stroke-width:0.49814;stroke-linecap:butt;stroke-linejoin:miter;stroke:rgb(0%,0%,0%);stroke-opacity:1;stroke-miterlimit:10;" d="M 30.472 -0.00075 C 30.472 1.175031 29.522781 2.12425 28.347 2.12425 C 27.171219 2.12425 26.222 1.175031 26.222 -0.00075 C 26.222 -1.172625 27.171219 -2.12575 28.347 -2.12575 C 29.522781 -2.12575 30.472 -1.172625 30.472 -0.00075 Z M 30.472 -0.00075 " transform="matrix(1,0,0,-1,-25.972,22.218)"/>
</g>
<g clip-path="url(#clip2)" clip-rule="nonzero">
<path style="fill:none;stroke-width:0.49814;stroke-linecap:butt;stroke-linejoin:miter;stroke:rgb(0%,0%,0%);stroke-opacity:1;stroke-miterlimit:10;" d="M 28.347 -2.12575 L 28.347 -21.9695 " transform="matrix(1,0,0,-1,-25.972,22.218)"/>
</g>
<g clip-path="url(#clip3)" clip-rule="nonzero">
<path style="fill:none;stroke-width:0.49814;stroke-linecap:butt;stroke-linejoin:miter;stroke:rgb(0%,0%,0%);stroke-opacity:1;stroke-miterlimit:10;" d="M 30.472 -0.00075 C 30.472 1.175031 29.522781 2.12425 28.347 2.12425 C 27.171219 2.12425 26.222 1.175031 26.222 -0.00075 C 26.222 -1.172625 27.171219 -2.12575 28.347 -2.12575 C 29.522781 -2.12575 30.472 -1.172625 30.472 -0.00075 Z M 30.472 -0.00075 " transform="matrix(1,0,0,-1,-25.972,22.218)"/>
</g>
<path style="fill:none;stroke-width:0.49814;stroke-linecap:butt;stroke-linejoin:miter;stroke:rgb(0%,0%,0%);stroke-opacity:1;stroke-miterlimit:10;" d="M 28.347 2.12425 L 28.347 21.968 " transform="matrix(1,0,0,-1,-25.972,22.218)"/>
<path style=" stroke:none;fill-rule:nonzero;fill:rgb(92.549133%,0%,54.899597%);fill-opacity:1;" d="M 2.488281 36.390625 C 2.488281 36.328125 2.4375 36.277344 2.375 36.277344 C 2.3125 36.277344 2.261719 36.328125 2.261719 36.390625 C 2.261719 36.453125 2.3125 36.503906 2.375 36.503906 C 2.4375 36.503906 2.488281 36.453125 2.488281 36.390625 Z M 2.488281 36.390625 "/>
<path style=" stroke:none;fill-rule:nonzero;fill:rgb(92.549133%,0%,54.899597%);fill-opacity:1;" d="M 2.488281 8.042969 C 2.488281 7.980469 2.4375 7.929688 2.375 7.929688 C 2.3125 7.929688 2.261719 7.980469 2.261719 8.042969 C 2.261719 8.105469 2.3125 8.15625 2.375 8.15625 C 2.4375 8.15625 2.488281 8.105469 2.488281 8.042969 Z M 2.488281 8.042969 "/>
</g>
</svg>
