<?xml version="1.0" encoding="UTF-8"?>
<svg xmlns="http://www.w3.org/2000/svg" xmlns:xlink="http://www.w3.org/1999/xlink" width="32.177pt" height="18.004pt" viewBox="0 0 32.177 18.004" version="1.1">
<defs>
<clipPath id="clip1">
  <path d="M 6 0 L 32.175781 0 L 32.175781 18.003906 L 6 18.003906 Z M 6 0 "/>
</clipPath>
</defs>
<g id="surface1">
<path style="fill:none;stroke-width:0.99628;stroke-linecap:butt;stroke-linejoin:miter;stroke:rgb(0%,0%,0%);stroke-opacity:1;stroke-miterlimit:10;" d="M -0.00190625 0.00190625 L -0.00190625 -11.337937 L 19.841844 -11.337937 " transform="matrix(1,0,0,-1,0.498,0.498)"/>
<path style=" stroke:none;fill-rule:nonzero;fill:rgb(100%,100%,100%);fill-opacity:1;" d="M 31.679688 11.835938 C 31.679688 8.707031 29.140625 6.167969 26.011719 6.167969 C 22.878906 6.167969 20.339844 8.707031 20.339844 11.835938 C 20.339844 14.96875 22.878906 17.503906 26.011719 17.503906 C 29.140625 17.503906 31.679688 14.96875 31.679688 11.835938 Z M 31.679688 11.835938 "/>
<g clip-path="url(#clip1)" clip-rule="nonzero">
<path style="fill:none;stroke-width:0.99628;stroke-linecap:butt;stroke-linejoin:miter;stroke:rgb(0%,0%,0%);stroke-opacity:1;stroke-miterlimit:10;" d="M 31.181687 -11.337937 C 31.181687 -8.209031 28.642625 -5.669969 25.513719 -5.669969 C 22.380906 -5.669969 19.841844 -8.209031 19.841844 -11.337937 C 19.841844 -14.47075 22.380906 -17.005906 25.513719 -17.005906 C 28.642625 -17.005906 31.181687 -14.47075 31.181687 -11.337937 Z M 31.181687 -11.337937 " transform="matrix(1,0,0,-1,0.498,0.498)"/>
</g>
<path style=" stroke:none;fill-rule:nonzero;fill:rgb(92.549133%,0%,54.899597%);fill-opacity:1;" d="M 0.609375 0.496094 C 0.609375 0.433594 0.5625 0.382812 0.496094 0.382812 C 0.433594 0.382812 0.382812 0.433594 0.382812 0.496094 C 0.382812 0.5625 0.433594 0.609375 0.496094 0.609375 C 0.5625 0.609375 0.609375 0.5625 0.609375 0.496094 Z M 0.609375 0.496094 "/>
</g>
</svg>
