<?xml version="1.0" encoding="UTF-8"?>
<svg xmlns="http://www.w3.org/2000/svg" xmlns:xlink="http://www.w3.org/1999/xlink" width="6.666pt" height="12.335pt" viewBox="0 0 6.666 12.335" version="1.1">
<defs>
<clipPath id="clip1">
  <path d="M 0 0 L 6.664062 0 L 6.664062 12.335938 L 0 12.335938 Z M 0 0 "/>
</clipPath>
</defs>
<g id="surface1">
<path style="fill:none;stroke-width:0.99628;stroke-linecap:butt;stroke-linejoin:miter;stroke:rgb(0%,0%,0%);stroke-opacity:1;stroke-miterlimit:10;" d="M -0.00096875 -2.834969 L -0.00096875 2.833 " transform="matrix(1,0,0,-1,3.333,3.333)"/>
<g clip-path="url(#clip1)" clip-rule="nonzero">
<path style="fill:none;stroke-width:0.99628;stroke-linecap:butt;stroke-linejoin:miter;stroke:rgb(0%,0%,0%);stroke-opacity:1;stroke-miterlimit:10;" d="M 2.834969 -5.670906 C 2.834969 -4.1045 1.565438 -2.834969 -0.00096875 -2.834969 C -1.567375 -2.834969 -2.833 -4.1045 -2.833 -5.670906 C -2.833 -7.233406 -1.567375 -8.502937 -0.00096875 -8.502937 C 1.565438 -8.502937 2.834969 -7.233406 2.834969 -5.670906 Z M 2.834969 -5.670906 " transform="matrix(1,0,0,-1,3.333,3.333)"/>
</g>
<path style=" stroke:none;fill-rule:nonzero;fill:rgb(92.549133%,0%,54.899597%);fill-opacity:1;" d="M 3.445312 3.332031 C 3.445312 3.269531 3.394531 3.21875 3.332031 3.21875 C 3.269531 3.21875 3.21875 3.269531 3.21875 3.332031 C 3.21875 3.394531 3.269531 3.445312 3.332031 3.445312 C 3.394531 3.445312 3.445312 3.394531 3.445312 3.332031 Z M 3.445312 3.332031 "/>
</g>
</svg>
