<?xml version="1.0" encoding="UTF-8"?>
<svg xmlns="http://www.w3.org/2000/svg" xmlns:xlink="http://www.w3.org/1999/xlink" width="179.748pt" height="66.362pt" viewBox="0 0 179.748 66.362" version="1.1">
<g id="surface1">
<path style="fill:none;stroke-width:1.99255;stroke-linecap:butt;stroke-linejoin:miter;stroke:rgb(0%,0%,0%);stroke-opacity:1;stroke-miterlimit:10;" d="M 0.0009375 0.0013125 L 170.079062 0.0013125 " transform="matrix(1,0,0,-1,4.835,33.181)"/>
<path style="fill:none;stroke-width:0.99628;stroke-linecap:butt;stroke-linejoin:miter;stroke:rgb(0%,0%,0%);stroke-opacity:1;stroke-miterlimit:10;" d="M 85.04 0.0013125 L 85.04 -11.338531 L 104.88375 -11.338531 " transform="matrix(1,0,0,-1,4.835,33.181)"/>
<path style="fill-rule:nonzero;fill:rgb(100%,100%,100%);fill-opacity:1;stroke-width:0.99628;stroke-linecap:butt;stroke-linejoin:miter;stroke:rgb(0%,0%,0%);stroke-opacity:1;stroke-miterlimit:10;" d="M 102.149375 -5.670563 C 103.614219 -5.670563 104.88375 -6.940094 104.88375 -8.502594 C 104.88375 -10.069 103.614219 -11.338531 102.149375 -11.338531 C 102.094688 -11.338531 102.047813 -11.295563 102.047813 -11.240875 L 102.047813 -5.768219 C 102.047813 -5.713531 102.094688 -5.670563 102.149375 -5.670563 Z M 102.149375 -5.670563 " transform="matrix(1,0,0,-1,4.835,33.181)"/>
</g>
</svg>
