<?xml version="1.0" encoding="UTF-8"?>
<svg xmlns="http://www.w3.org/2000/svg" xmlns:xlink="http://www.w3.org/1999/xlink" width="114.382pt" height="18.004pt" viewBox="0 0 114.382 18.004" version="1.1">
<defs>
<clipPath id="clip1">
  <path d="M 0 0 L 114.382812 0 L 114.382812 18.003906 L 0 18.003906 Z M 0 0 "/>
</clipPath>
</defs>
<g id="surface1">
<path style=" stroke:none;fill-rule:nonzero;fill:rgb(100%,100%,100%);fill-opacity:1;" d="M 113.882812 9.003906 L 105.378906 0.496094 L 0.496094 0.496094 L 0.496094 17.507812 L 105.378906 17.507812 Z M 113.882812 9.003906 "/>
<g clip-path="url(#clip1)" clip-rule="nonzero">
<path style="fill:none;stroke-width:0.99628;stroke-linecap:butt;stroke-linejoin:miter;stroke:rgb(0%,0%,0%);stroke-opacity:1;stroke-miterlimit:10;" d="M -0.0011875 -0.00190625 L -8.505094 8.505906 L -113.387906 8.505906 L -113.387906 -8.505812 L -8.505094 -8.505812 Z M -0.0011875 -0.00190625 " transform="matrix(1,0,0,-1,113.884,9.002)"/>
</g>
<path style=" stroke:none;fill-rule:nonzero;fill:rgb(0%,0%,0%);fill-opacity:1;" d="M 109.632812 9.003906 L 105.378906 4.75 L 105.378906 13.253906 Z M 109.632812 9.003906 "/>
<path style=" stroke:none;fill-rule:nonzero;fill:rgb(92.549133%,0%,54.899597%);fill-opacity:1;" d="M 113.996094 9.003906 C 113.996094 8.9375 113.945312 8.890625 113.882812 8.890625 C 113.820312 8.890625 113.769531 8.9375 113.769531 9.003906 C 113.769531 9.066406 113.820312 9.117188 113.882812 9.117188 C 113.945312 9.117188 113.996094 9.066406 113.996094 9.003906 Z M 113.996094 9.003906 "/>
</g>
</svg>
