<?xml version="1.0" encoding="UTF-8"?>
<svg xmlns="http://www.w3.org/2000/svg" xmlns:xlink="http://www.w3.org/1999/xlink" width="116.968pt" height="11.168pt" viewBox="0 0 116.968 11.168" version="1.1">
<defs>
<clipPath id="clip1">
  <path d="M 0 6 L 116.96875 6 L 116.96875 11 L 0 11 Z M 0 6 "/>
</clipPath>
<clipPath id="clip2">
  <path d="M 109 8 L 113 8 L 113 11.167969 L 109 11.167969 Z M 109 8 "/>
</clipPath>
<clipPath id="clip3">
  <path d="M 4 8 L 8 8 L 8 11.167969 L 4 11.167969 Z M 4 8 "/>
</clipPath>
</defs>
<g id="surface1">
<g clip-path="url(#clip1)" clip-rule="nonzero">
<path style="fill:none;stroke-width:0.74721;stroke-linecap:round;stroke-linejoin:miter;stroke:rgb(0%,0%,0%);stroke-opacity:1;stroke-dasharray:0,1.79327;stroke-miterlimit:10;" d="M -58.112906 -7.086219 L -58.112906 -9.922156 M -57.362906 -9.922156 L 58.10975 -9.922156 M 58.10975 -7.086219 L 58.10975 -9.922156 " transform="matrix(1,0,0,-1,58.484,0.113)"/>
</g>
<g clip-path="url(#clip2)" clip-rule="nonzero">
<path style=" stroke:none;fill-rule:nonzero;fill:rgb(0%,0%,0%);fill-opacity:1;" d="M 112.34375 10.035156 L 109.507812 11.167969 L 109.507812 8.902344 Z M 112.34375 10.035156 "/>
</g>
<g clip-path="url(#clip3)" clip-rule="nonzero">
<path style=" stroke:none;fill-rule:nonzero;fill:rgb(0%,0%,0%);fill-opacity:1;" d="M 7.460938 10.035156 L 4.625 11.167969 L 4.625 8.902344 Z M 7.460938 10.035156 "/>
</g>
<path style=" stroke:none;fill-rule:nonzero;fill:rgb(92.549133%,0%,54.899597%);fill-opacity:1;" d="M 58.597656 0.113281 C 58.597656 0.0507812 58.546875 0 58.484375 0 C 58.421875 0 58.371094 0.0507812 58.371094 0.113281 C 58.371094 0.175781 58.421875 0.226562 58.484375 0.226562 C 58.546875 0.226562 58.597656 0.175781 58.597656 0.113281 Z M 58.597656 0.113281 "/>
</g>
</svg>
