<?xml version="1.0" encoding="UTF-8"?>
<svg xmlns="http://www.w3.org/2000/svg" xmlns:xlink="http://www.w3.org/1999/xlink" width="115.401pt" height="19.023pt" viewBox="0 0 115.401 19.023" version="1.1">
<g id="surface1">
<path style=" stroke:none;fill-rule:nonzero;fill:rgb(100%,100%,100%);fill-opacity:1;" d="M 114.394531 9.511719 L 105.890625 1.007812 L 1.003906 1.007812 L 1.003906 18.015625 L 105.890625 18.015625 Z M 114.394531 9.511719 "/>
<path style="fill:none;stroke-width:2.01509;stroke-linecap:butt;stroke-linejoin:miter;stroke:rgb(0%,0%,0%);stroke-opacity:1;stroke-miterlimit:10;" d="M 0.00153125 -0.00071875 L -8.502375 8.503187 L -113.389094 8.503187 L -113.389094 -8.504625 L -8.502375 -8.504625 Z M 0.00153125 -0.00071875 " transform="matrix(1,0,0,-1,114.393,9.511)"/>
<path style="fill:none;stroke-width:1.41731;stroke-linecap:butt;stroke-linejoin:miter;stroke:rgb(100%,100%,100%);stroke-opacity:1;stroke-miterlimit:10;" d="M 0.00153125 -0.00071875 L -8.502375 8.503187 L -113.389094 8.503187 L -113.389094 -8.504625 L -8.502375 -8.504625 Z M 0.00153125 -0.00071875 " transform="matrix(1,0,0,-1,114.393,9.511)"/>
<path style=" stroke:none;fill-rule:nonzero;fill:rgb(92.549133%,0%,54.899597%);fill-opacity:1;" d="M 114.507812 9.511719 C 114.507812 9.449219 114.457031 9.398438 114.394531 9.398438 C 114.332031 9.398438 114.28125 9.449219 114.28125 9.511719 C 114.28125 9.574219 114.332031 9.625 114.394531 9.625 C 114.457031 9.625 114.507812 9.574219 114.507812 9.511719 Z M 114.507812 9.511719 "/>
</g>
</svg>
