<?xml version="1.0" encoding="UTF-8"?>
<svg xmlns="http://www.w3.org/2000/svg" xmlns:xlink="http://www.w3.org/1999/xlink" width="15.169pt" height="8.083pt" viewBox="0 0 15.169 8.083" version="1.1">
<defs>
<clipPath id="clip1">
  <path d="M 0 0 L 15.167969 0 L 15.167969 8.082031 L 0 8.082031 Z M 0 0 "/>
</clipPath>
</defs>
<g id="surface1">
<path style=" stroke:none;fill-rule:nonzero;fill:rgb(100%,100%,100%);fill-opacity:1;" d="M 0.5 0.496094 L 0.5 7.585938 L 14.671875 7.585938 L 14.671875 0.496094 Z M 0.5 0.496094 "/>
<g clip-path="url(#clip1)" clip-rule="nonzero">
<path style="fill:none;stroke-width:0.99628;stroke-linecap:butt;stroke-linejoin:miter;stroke:rgb(0%,0%,0%);stroke-opacity:1;stroke-miterlimit:10;" d="M -7.085 0.00190625 L -7.085 -7.087937 L 7.086875 -7.087937 L 7.086875 0.00190625 Z M -7.085 0.00190625 " transform="matrix(1,0,0,-1,7.585,0.498)"/>
</g>
<path style=" stroke:none;fill-rule:nonzero;fill:rgb(92.549133%,0%,54.899597%);fill-opacity:1;" d="M 7.699219 0.496094 C 7.699219 0.433594 7.648438 0.382812 7.585938 0.382812 C 7.523438 0.382812 7.472656 0.433594 7.472656 0.496094 C 7.472656 0.5625 7.523438 0.609375 7.585938 0.609375 C 7.648438 0.609375 7.699219 0.5625 7.699219 0.496094 Z M 7.699219 0.496094 "/>
</g>
</svg>
