<?xml version="1.0" encoding="UTF-8"?>
<svg xmlns="http://www.w3.org/2000/svg" xmlns:xlink="http://www.w3.org/1999/xlink" width="15.169pt" height="8.083pt" viewBox="0 0 15.169 8.083" version="1.1">
<defs>
<clipPath id="clip1">
  <path d="M 0 0 L 15.167969 0 L 15.167969 8.082031 L 0 8.082031 Z M 0 0 "/>
</clipPath>
<clipPath id="clip2">
  <path d="M 0 0 L 11 0 L 11 8.082031 L 0 8.082031 Z M 0 0 "/>
</clipPath>
</defs>
<g id="surface1">
<path style=" stroke:none;fill-rule:nonzero;fill:rgb(100%,100%,100%);fill-opacity:1;" d="M 0.5 7.585938 L 0.5 0.5 L 14.671875 0.5 L 14.671875 7.585938 Z M 0.5 7.585938 "/>
<g clip-path="url(#clip1)" clip-rule="nonzero">
<path style="fill:none;stroke-width:0.99628;stroke-linecap:butt;stroke-linejoin:miter;stroke:rgb(0%,0%,0%);stroke-opacity:1;stroke-miterlimit:10;" d="M -7.085 -0.0009375 L -7.085 7.085 L 7.086875 7.085 L 7.086875 -0.0009375 Z M -7.085 -0.0009375 " transform="matrix(1,0,0,-1,7.585,7.585)"/>
</g>
<g clip-path="url(#clip2)" clip-rule="nonzero">
<path style="fill:none;stroke-width:0.3985;stroke-linecap:butt;stroke-linejoin:miter;stroke:rgb(0%,0%,0%);stroke-opacity:1;stroke-miterlimit:10;" d="M -2.835 1.417031 L -5.670937 3.542031 L -2.835 5.670937 Z M -2.835 1.417031 " transform="matrix(1,0,0,-1,7.585,7.585)"/>
</g>
<path style=" stroke:none;fill-rule:nonzero;fill:rgb(92.549133%,0%,54.899597%);fill-opacity:1;" d="M 7.699219 7.585938 C 7.699219 7.523438 7.648438 7.472656 7.585938 7.472656 C 7.523438 7.472656 7.472656 7.523438 7.472656 7.585938 C 7.472656 7.648438 7.523438 7.699219 7.585938 7.699219 C 7.648438 7.699219 7.699219 7.648438 7.699219 7.585938 Z M 7.699219 7.585938 "/>
</g>
</svg>
