<?xml version="1.0" encoding="UTF-8"?>
<svg xmlns="http://www.w3.org/2000/svg" xmlns:xlink="http://www.w3.org/1999/xlink" width="12.331pt" height="15.591pt" viewBox="0 0 12.331 15.591" version="1.1">
<defs>
<clipPath id="clip1">
  <path d="M 0 0 L 12.332031 0 L 12.332031 12 L 0 12 Z M 0 0 "/>
</clipPath>
<clipPath id="clip2">
  <path d="M 1 12 L 5 12 L 5 15.589844 L 1 15.589844 Z M 1 12 "/>
</clipPath>
<clipPath id="clip3">
  <path d="M 5 12 L 9 12 L 9 15.589844 L 5 15.589844 Z M 5 12 "/>
</clipPath>
</defs>
<g id="surface1">
<g clip-path="url(#clip1)" clip-rule="nonzero">
<path style=" stroke:none;fill-rule:nonzero;fill:rgb(0%,0%,0%);fill-opacity:1;" d="M 0.992188 11.339844 L 12.332031 11.339844 L 12.332031 0 Z M 0.992188 11.339844 "/>
</g>
<g clip-path="url(#clip2)" clip-rule="nonzero">
<path style=" stroke:none;fill-rule:nonzero;fill:rgb(0%,0%,0%);fill-opacity:1;" d="M 4.535156 14.175781 C 4.535156 13.390625 3.902344 12.757812 3.117188 12.757812 C 2.335938 12.757812 1.699219 13.390625 1.699219 14.175781 C 1.699219 14.957031 2.335938 15.589844 3.117188 15.589844 C 3.902344 15.589844 4.535156 14.957031 4.535156 14.175781 Z M 4.535156 14.175781 "/>
</g>
<g clip-path="url(#clip3)" clip-rule="nonzero">
<path style=" stroke:none;fill-rule:nonzero;fill:rgb(0%,0%,0%);fill-opacity:1;" d="M 8.789062 14.175781 C 8.789062 13.390625 8.152344 12.757812 7.371094 12.757812 C 6.585938 12.757812 5.953125 13.390625 5.953125 14.175781 C 5.953125 14.957031 6.585938 15.589844 7.371094 15.589844 C 8.152344 15.589844 8.789062 14.957031 8.789062 14.175781 Z M 8.789062 14.175781 "/>
</g>
<path style=" stroke:none;fill-rule:nonzero;fill:rgb(0%,0%,0%);fill-opacity:1;" d="M 2.835938 7.085938 C 2.835938 6.304688 2.199219 5.667969 1.417969 5.667969 C 0.632812 5.667969 0 6.304688 0 7.085938 C 0 7.871094 0.632812 8.503906 1.417969 8.503906 C 2.199219 8.503906 2.835938 7.871094 2.835938 7.085938 Z M 2.835938 7.085938 "/>
<path style=" stroke:none;fill-rule:nonzero;fill:rgb(0%,0%,0%);fill-opacity:1;" d="M 5.667969 4.253906 C 5.667969 3.46875 5.035156 2.835938 4.253906 2.835938 C 3.46875 2.835938 2.835938 3.46875 2.835938 4.253906 C 2.835938 5.035156 3.46875 5.667969 4.253906 5.667969 C 5.035156 5.667969 5.667969 5.035156 5.667969 4.253906 Z M 5.667969 4.253906 "/>
<path style=" stroke:none;fill-rule:nonzero;fill:rgb(92.549133%,0%,54.899597%);fill-opacity:1;" d="M 1.105469 11.339844 C 1.105469 11.277344 1.054688 11.226562 0.992188 11.226562 C 0.929688 11.226562 0.878906 11.277344 0.878906 11.339844 C 0.878906 11.402344 0.929688 11.453125 0.992188 11.453125 C 1.054688 11.453125 1.105469 11.402344 1.105469 11.339844 Z M 1.105469 11.339844 "/>
</g>
</svg>
