<?xml version="1.0" encoding="UTF-8"?>
<svg xmlns="http://www.w3.org/2000/svg" xmlns:xlink="http://www.w3.org/1999/xlink" width="11.452pt" height="14.92pt" viewBox="0 0 11.452 14.92" version="1.1">
<defs>
<clipPath id="clip1">
  <path d="M 0 0 L 11.453125 0 L 11.453125 12 L 0 12 Z M 0 0 "/>
</clipPath>
<clipPath id="clip2">
  <path d="M 0 13 L 10 13 L 10 14.921875 L 0 14.921875 Z M 0 13 "/>
</clipPath>
</defs>
<g id="surface1">
<g clip-path="url(#clip1)" clip-rule="nonzero">
<path style=" stroke:none;fill-rule:nonzero;fill:rgb(0%,0%,0%);fill-opacity:1;" d="M 0.113281 11.339844 L 11.453125 11.339844 L 11.453125 0 Z M 0.113281 11.339844 "/>
</g>
<g clip-path="url(#clip2)" clip-rule="nonzero">
<path style="fill:none;stroke-width:1.49442;stroke-linecap:butt;stroke-linejoin:miter;stroke:rgb(0%,0%,0%);stroke-opacity:1;stroke-miterlimit:10;" d="M 0.992469 -2.833875 L 8.504188 -2.833875 " transform="matrix(1,0,0,-1,0.113,11.338)"/>
</g>
<path style=" stroke:none;fill-rule:nonzero;fill:rgb(92.549133%,0%,54.899597%);fill-opacity:1;" d="M 0.226562 11.339844 C 0.226562 11.277344 0.175781 11.226562 0.113281 11.226562 C 0.0507812 11.226562 0 11.277344 0 11.339844 C 0 11.402344 0.0507812 11.453125 0.113281 11.453125 C 0.175781 11.453125 0.226562 11.402344 0.226562 11.339844 Z M 0.226562 11.339844 "/>
</g>
</svg>
