<?xml version="1.0" encoding="UTF-8"?>
<svg xmlns="http://www.w3.org/2000/svg" xmlns:xlink="http://www.w3.org/1999/xlink" width="179.748pt" height="66.362pt" viewBox="0 0 179.748 66.362" version="1.1">
<g id="surface1">
<path style="fill:none;stroke-width:1.99255;stroke-linecap:butt;stroke-linejoin:miter;stroke:rgb(0%,0%,0%);stroke-opacity:1;stroke-miterlimit:10;" d="M 0.0009375 0.0013125 L 170.079062 0.0013125 " transform="matrix(1,0,0,-1,4.835,33.181)"/>
<path style="fill:none;stroke-width:1.99255;stroke-linecap:butt;stroke-linejoin:miter;stroke:rgb(0%,0%,0%);stroke-opacity:1;stroke-miterlimit:10;" d="M 85.04 0.0013125 L 113.387656 28.345062 " transform="matrix(1,0,0,-1,4.835,33.181)"/>
<path style=" stroke:none;fill-rule:nonzero;fill:rgb(0%,0%,0%);fill-opacity:1;" d="M 89.875 33.179688 L 101.214844 33.179688 L 101.214844 21.84375 Z M 89.875 33.179688 "/>
<path style=" stroke:none;fill-rule:nonzero;fill:rgb(0%,0%,0%);fill-opacity:1;" d="M 93.417969 36.015625 C 93.417969 35.234375 92.785156 34.597656 92 34.597656 C 91.21875 34.597656 90.582031 35.234375 90.582031 36.015625 C 90.582031 36.796875 91.21875 37.433594 92 37.433594 C 92.785156 37.433594 93.417969 36.796875 93.417969 36.015625 Z M 93.417969 36.015625 "/>
<path style=" stroke:none;fill-rule:nonzero;fill:rgb(0%,0%,0%);fill-opacity:1;" d="M 97.671875 36.015625 C 97.671875 35.234375 97.035156 34.597656 96.253906 34.597656 C 95.472656 34.597656 94.835938 35.234375 94.835938 36.015625 C 94.835938 36.796875 95.472656 37.433594 96.253906 37.433594 C 97.035156 37.433594 97.671875 36.796875 97.671875 36.015625 Z M 97.671875 36.015625 "/>
<path style=" stroke:none;fill-rule:nonzero;fill:rgb(0%,0%,0%);fill-opacity:1;" d="M 91.71875 28.929688 C 91.71875 28.144531 91.082031 27.511719 90.300781 27.511719 C 89.519531 27.511719 88.882812 28.144531 88.882812 28.929688 C 88.882812 29.710938 89.519531 30.347656 90.300781 30.347656 C 91.082031 30.347656 91.71875 29.710938 91.71875 28.929688 Z M 91.71875 28.929688 "/>
<path style=" stroke:none;fill-rule:nonzero;fill:rgb(0%,0%,0%);fill-opacity:1;" d="M 94.554688 26.09375 C 94.554688 25.3125 93.917969 24.675781 93.136719 24.675781 C 92.351562 24.675781 91.71875 25.3125 91.71875 26.09375 C 91.71875 26.878906 92.351562 27.511719 93.136719 27.511719 C 93.917969 27.511719 94.554688 26.878906 94.554688 26.09375 Z M 94.554688 26.09375 "/>
</g>
</svg>
