<?xml version="1.0" encoding="UTF-8"?>
<svg xmlns="http://www.w3.org/2000/svg" xmlns:xlink="http://www.w3.org/1999/xlink" width="12.331pt" height="15.591pt" viewBox="0 0 12.331 15.591" version="1.1">
<defs>
<clipPath id="clip1">
  <path d="M 0 4 L 12.332031 4 L 12.332031 15.589844 L 0 15.589844 Z M 0 4 "/>
</clipPath>
</defs>
<g id="surface1">
<g clip-path="url(#clip1)" clip-rule="nonzero">
<path style=" stroke:none;fill-rule:nonzero;fill:rgb(0%,0%,0%);fill-opacity:1;" d="M 0.992188 4.253906 L 12.332031 4.253906 L 12.332031 15.589844 Z M 0.992188 4.253906 "/>
</g>
<path style=" stroke:none;fill-rule:nonzero;fill:rgb(0%,0%,0%);fill-opacity:1;" d="M 4.535156 1.417969 C 4.535156 0.636719 3.902344 0 3.117188 0 C 2.335938 0 1.699219 0.636719 1.699219 1.417969 C 1.699219 2.199219 2.335938 2.835938 3.117188 2.835938 C 3.902344 2.835938 4.535156 2.199219 4.535156 1.417969 Z M 4.535156 1.417969 "/>
<path style=" stroke:none;fill-rule:nonzero;fill:rgb(0%,0%,0%);fill-opacity:1;" d="M 8.789062 1.417969 C 8.789062 0.636719 8.152344 0 7.371094 0 C 6.585938 0 5.953125 0.636719 5.953125 1.417969 C 5.953125 2.199219 6.585938 2.835938 7.371094 2.835938 C 8.152344 2.835938 8.789062 2.199219 8.789062 1.417969 Z M 8.789062 1.417969 "/>
<path style=" stroke:none;fill-rule:nonzero;fill:rgb(0%,0%,0%);fill-opacity:1;" d="M 2.835938 8.503906 C 2.835938 7.722656 2.199219 7.085938 1.417969 7.085938 C 0.632812 7.085938 0 7.722656 0 8.503906 C 0 9.289062 0.632812 9.921875 1.417969 9.921875 C 2.199219 9.921875 2.835938 9.289062 2.835938 8.503906 Z M 2.835938 8.503906 "/>
<path style=" stroke:none;fill-rule:nonzero;fill:rgb(0%,0%,0%);fill-opacity:1;" d="M 5.667969 11.339844 C 5.667969 10.558594 5.035156 9.921875 4.253906 9.921875 C 3.46875 9.921875 2.835938 10.558594 2.835938 11.339844 C 2.835938 12.121094 3.46875 12.757812 4.253906 12.757812 C 5.035156 12.757812 5.667969 12.121094 5.667969 11.339844 Z M 5.667969 11.339844 "/>
<path style=" stroke:none;fill-rule:nonzero;fill:rgb(92.549133%,0%,54.899597%);fill-opacity:1;" d="M 1.105469 4.253906 C 1.105469 4.191406 1.054688 4.140625 0.992188 4.140625 C 0.929688 4.140625 0.878906 4.191406 0.878906 4.253906 C 0.878906 4.316406 0.929688 4.367188 0.992188 4.367188 C 1.054688 4.367188 1.105469 4.316406 1.105469 4.253906 Z M 1.105469 4.253906 "/>
</g>
</svg>
