<?xml version="1.0" encoding="UTF-8"?>
<svg xmlns="http://www.w3.org/2000/svg" xmlns:xlink="http://www.w3.org/1999/xlink" width="179.748pt" height="66.362pt" viewBox="0 0 179.748 66.362" version="1.1">
<g id="surface1">
<path style="fill:none;stroke-width:1.99255;stroke-linecap:butt;stroke-linejoin:miter;stroke:rgb(0%,0%,0%);stroke-opacity:1;stroke-miterlimit:10;" d="M 0.0009375 0.0013125 L 170.079062 0.0013125 " transform="matrix(1,0,0,-1,4.835,33.181)"/>
<path style="fill:none;stroke-width:0.99628;stroke-linecap:butt;stroke-linejoin:miter;stroke:rgb(0%,0%,0%);stroke-opacity:1;stroke-miterlimit:10;" d="M 85.04 -8.033844 L 85.04 -11.338531 L 90.707969 -11.338531 " transform="matrix(1,0,0,-1,4.835,33.181)"/>
<path style=" stroke:none;fill-rule:nonzero;fill:rgb(0%,0%,0%);fill-opacity:1;" d="M 89.875 36.015625 C 89.585938 37.558594 88.71875 40.0625 87.707031 41.792969 L 92.042969 41.792969 C 91.03125 40.0625 90.164062 37.558594 89.875 36.015625 "/>
<path style="fill-rule:nonzero;fill:rgb(0%,0%,0%);fill-opacity:1;stroke-width:0.3985;stroke-linecap:butt;stroke-linejoin:miter;stroke:rgb(0%,0%,0%);stroke-opacity:1;stroke-miterlimit:10;" d="M 99.211875 -11.338531 C 99.211875 -9.772125 97.94625 -8.502594 96.379844 -8.502594 C 94.813438 -8.502594 93.543906 -9.772125 93.543906 -11.338531 C 93.543906 -12.904938 94.813438 -14.174469 96.379844 -14.174469 C 97.94625 -14.174469 99.211875 -12.904938 99.211875 -11.338531 Z M 99.211875 -11.338531 " transform="matrix(1,0,0,-1,4.835,33.181)"/>
<path style="fill:none;stroke-width:0.99628;stroke-linecap:butt;stroke-linejoin:miter;stroke:rgb(0%,0%,0%);stroke-opacity:1;stroke-miterlimit:10;" d="M 96.379844 -4.252594 C 92.125938 -7.088531 92.125938 -15.592438 96.379844 -18.424469 C 100.629844 -15.592438 100.629844 -7.088531 96.379844 -4.252594 Z M 96.379844 -4.252594 " transform="matrix(1,0,0,-1,4.835,33.181)"/>
</g>
</svg>
