<?xml version="1.0" encoding="UTF-8"?>
<svg xmlns="http://www.w3.org/2000/svg" xmlns:xlink="http://www.w3.org/1999/xlink" width="19.272pt" height="19.272pt" viewBox="0 0 19.272 19.272" version="1.1">
<g id="surface1">
<path style="fill:none;stroke-width:0.99628;stroke-linecap:butt;stroke-linejoin:miter;stroke:rgb(0%,0%,0%);stroke-opacity:1;stroke-miterlimit:10;" d="M -0.00190625 0.00190625 L -0.00190625 -11.337938 L 11.337938 -11.337938 " transform="matrix(1,0,0,-1,0.498,0.498)"/>
<path style=" stroke:none;fill-rule:nonzero;fill:rgb(0.390625%,22.744751%,87.449646%);fill-opacity:1;" d="M 11.765625 4.820312 L 4.820312 11.765625 C 4.78125 11.804688 4.78125 11.867188 4.820312 11.90625 L 11.765625 18.851562 C 11.804688 18.890625 11.867188 18.890625 11.90625 18.851562 L 18.851562 11.90625 C 18.890625 11.867188 18.890625 11.804688 18.851562 11.765625 L 11.90625 4.820312 C 11.867188 4.78125 11.804688 4.78125 11.765625 4.820312 Z M 11.765625 4.820312 "/>
<path style="fill:none;stroke-width:0.6974;stroke-linecap:butt;stroke-linejoin:miter;stroke:rgb(0%,0%,0%);stroke-opacity:1;stroke-miterlimit:10;" d="M 11.267625 -4.322313 L 4.322312 -11.267625 C 4.28325 -11.306688 4.28325 -11.369188 4.322312 -11.40825 L 11.267625 -18.353563 C 11.306688 -18.392625 11.369188 -18.392625 11.40825 -18.353563 L 18.353562 -11.40825 C 18.392625 -11.369188 18.392625 -11.306688 18.353562 -11.267625 L 11.40825 -4.322313 C 11.369188 -4.28325 11.306688 -4.28325 11.267625 -4.322313 Z M 11.267625 -4.322313 " transform="matrix(1,0,0,-1,0.498,0.498)"/>
<path style="fill:none;stroke-width:0.49814;stroke-linecap:butt;stroke-linejoin:miter;stroke:rgb(100%,100%,100%);stroke-opacity:1;stroke-miterlimit:10;" d="M 11.267625 -4.322313 L 4.322312 -11.267625 C 4.28325 -11.306688 4.28325 -11.369188 4.322312 -11.40825 L 11.267625 -18.353563 C 11.306688 -18.392625 11.369188 -18.392625 11.40825 -18.353563 L 18.353562 -11.40825 C 18.392625 -11.369188 18.392625 -11.306688 18.353562 -11.267625 L 11.40825 -4.322313 C 11.369188 -4.28325 11.306688 -4.28325 11.267625 -4.322313 Z M 11.267625 -4.322313 " transform="matrix(1,0,0,-1,0.498,0.498)"/>
<path style=" stroke:none;fill-rule:nonzero;fill:rgb(100%,100%,100%);fill-opacity:1;" d="M 11.835938 7.585938 L 7.585938 11.835938 L 11.835938 16.089844 L 16.089844 11.835938 Z M 11.835938 7.585938 "/>
<path style=" stroke:none;fill-rule:nonzero;fill:rgb(0.390625%,22.744751%,87.449646%);fill-opacity:1;" d="M 11.835938 9.003906 L 9 11.835938 L 11.835938 14.671875 L 14.671875 11.835938 Z M 11.835938 9.003906 "/>
<path style=" stroke:none;fill-rule:nonzero;fill:rgb(100%,100%,100%);fill-opacity:1;" d="M 11.835938 10.417969 L 10.417969 11.835938 L 11.835938 13.253906 L 13.253906 11.835938 Z M 11.835938 10.417969 "/>
<path style=" stroke:none;fill-rule:nonzero;fill:rgb(92.549133%,0%,54.899597%);fill-opacity:1;" d="M 0.609375 0.496094 C 0.609375 0.433594 0.5625 0.382812 0.496094 0.382812 C 0.433594 0.382812 0.382812 0.433594 0.382812 0.496094 C 0.382812 0.5625 0.433594 0.609375 0.496094 0.609375 C 0.5625 0.609375 0.609375 0.5625 0.609375 0.496094 Z M 0.609375 0.496094 "/>
</g>
</svg>
